# xmcd
#
# Track frame offsets: 
#        150
#        44232
#        67908
#        88094
#
# Disc length: 1502 seconds
#
# Revision: 0
# Processed by: cddbd v1.5.2PL0 Copyright (c) Steve Scherf et al.
# Submitted via: ExactAudioCopy v1.0b3
#
DISCID=3305dc04
DTITLE=Dexys - Nowhere is Home
DYEAR=2014
DGENRE=Pop
TTITLE0=The Waltz (Live Alt Version)
TTITLE1=Nowhere Is Home (Live Alt Version)
TTITLE2=She Got A Wiggle (Radio Mix) 
TTITLE3=Incapable Of Love (Radio Mix) 
EXTD=
EXTT0=
EXTT1=
EXTT2=
EXTT3=
PLAYORDER=
